<?xml version="1.0" encoding="UTF-8"?> <svg xmlns="http://www.w3.org/2000/svg" width="171" height="50" viewBox="0 0 171 50" fill="none"><path d="M47.022 27.2493H38.1572V1.3811H46.8792C55.6726 1.3811 60.2549 6.59563 60.2549 14.2787C60.2549 21.9617 55.5584 27.2639 47.022 27.2639V27.2493ZM46.6937 6.36193H44.4239V22.2684H46.6937C51.1617 22.2684 53.9454 19.873 53.9454 14.3225C53.9454 8.77201 50.9762 6.37654 46.6937 6.37654V6.36193Z" fill="black"></path><path d="M64.1377 27.2493V1.3811H70.4044V27.2639H64.1377V27.2493Z" fill="black"></path><path d="M86.7208 27.7459C78.6983 27.7459 74.2588 22.3415 74.2588 14.3517C74.2588 6.36197 79.0552 0.884521 86.8636 0.884521C94.672 0.884521 92.5879 1.62945 94.6006 2.79798L93.7584 8.39228C91.8456 7.15072 89.6187 6.17209 87.0063 6.17209C82.6382 6.17209 80.5255 9.47316 80.5255 14.3079C80.5255 19.1427 82.7238 22.5898 87.092 22.5898C91.4601 22.5898 89.4759 22.2831 90.5037 21.7719V17.1562H86.107L85.379 12.3945H95.971V24.9999C93.3302 26.7673 90.2182 27.7313 86.7351 27.7313L86.7208 27.7459Z" fill="black"></path><path d="M100.325 27.2493V1.3811H106.592V27.2639H100.325V27.2493Z" fill="black"></path><path d="M123.421 6.81473V27.2639H117.112V6.81473H109.96V1.3811H129.973L130.859 6.81473H123.421Z" fill="black"></path><path d="M137.654 1.2644H144.549L153.342 26.4753L147.032 27.5269L145.162 21.9034H136.369L134.685 27.264H128.561L137.654 1.2644ZM137.868 16.8642H143.592L140.766 7.86656L137.868 16.8642Z" fill="black"></path><path d="M156.126 27.2493V1.3811H162.392V21.7134H170.158L171 27.2639H156.111L156.126 27.2493Z" fill="black"></path><path d="M43.3822 49.0129C41.2695 49.0129 39.171 48.3556 37.7578 47.5669L38.0576 45.9894C39.5422 46.8512 41.455 47.5669 43.5392 47.5669C45.6233 47.5669 47.4505 46.5006 47.4505 44.6018C47.4505 42.7029 46.4798 42.0602 43.0824 41.0816C39.7563 40.1468 38.2432 38.9782 38.2432 36.5097C38.2432 34.0412 40.3273 32.2446 43.4535 32.2446C46.5798 32.2446 46.8224 32.6974 48.0929 33.3401L47.8217 34.8884C46.3799 34.1289 44.8953 33.7199 43.3822 33.7199C40.8983 33.7199 39.7849 34.9322 39.7849 36.4075C39.7849 37.8828 40.727 38.6861 43.5535 39.4749C47.1508 40.4681 49.0065 41.7535 49.0065 44.4703C49.0065 47.1871 46.6797 49.0129 43.3822 49.0129Z" fill="black"></path><path d="M59.1273 49.0862C55.2588 49.0862 52.1611 45.9896 52.1611 40.6582C52.1611 35.3268 55.2874 32.2302 59.2272 32.2302C63.1671 32.2302 62.9673 32.9459 64.3377 34.0268L64.0379 35.6774C62.4534 34.3044 60.9831 33.6471 59.1559 33.6471C55.787 33.6471 53.8028 36.5099 53.8028 40.6728C53.8028 44.8357 55.7156 47.6985 59.2843 47.6985C62.8531 47.6985 62.5819 47.0851 64.2378 45.639L64.4376 47.1581C62.9958 48.3997 61.24 49.1154 59.1273 49.1154V49.0862Z" fill="black"></path><path d="M68.292 48.7356V32.5515H69.848V48.7356H68.292Z" fill="black"></path><path d="M80.9965 49.0862C76.8282 49.0862 74.0303 45.9165 74.0303 40.6582C74.0303 35.3998 76.9281 32.2302 80.7681 32.2302C84.608 32.2302 86.8207 35.838 86.8207 40.3222V40.6728H75.6576C75.6576 44.8064 77.5419 47.6985 81.0678 47.6985C84.5938 47.6985 85.0077 46.6615 86.5494 45.2154L86.7778 46.7345C85.3361 48.0783 83.2519 49.1154 80.9965 49.1154V49.0862ZM75.7147 39.2998H85.1648C85.0648 36.1302 83.5089 33.5448 80.7538 33.5448C77.9987 33.5448 76.043 35.9257 75.7004 39.2998H75.7147Z" fill="black"></path><path d="M101.595 48.7355V37.4739C101.595 35.0346 100.453 33.6908 98.198 33.6908C95.9426 33.6908 94.6293 34.7279 92.6451 36.6121V48.7355H91.0605V32.5515H92.2025L92.6022 34.9908C94.5151 33.2672 96.2709 32.2009 98.3551 32.2009C101.624 32.2009 103.166 34.0998 103.166 37.3278V48.7209H101.581L101.595 48.7355Z" fill="black"></path><path d="M114.201 49.0862C110.332 49.0862 107.234 45.9896 107.234 40.6582C107.234 35.3268 110.361 32.2302 114.3 32.2302C118.24 32.2302 118.041 32.9459 119.411 34.0268L119.111 35.6774C117.527 34.3044 116.042 33.6471 114.229 33.6471C110.86 33.6471 108.876 36.5099 108.876 40.6728C108.876 44.8357 110.789 47.6985 114.358 47.6985C117.926 47.6985 117.655 47.0851 119.311 45.639L119.511 47.1581C118.069 48.3997 116.313 49.1154 114.201 49.1154V49.0862Z" fill="black"></path><path d="M129.203 49.0862C125.035 49.0862 122.237 45.9165 122.237 40.6582C122.237 35.3998 125.135 32.2302 128.961 32.2302C132.787 32.2302 135.013 35.838 135.013 40.3222V40.6728H123.85C123.85 44.8064 125.735 47.6985 129.261 47.6985C132.787 47.6985 133.2 46.6615 134.742 45.2154L134.971 46.7345C133.529 48.0783 131.445 49.1154 129.189 49.1154L129.203 49.0862ZM123.922 39.2998H133.372C133.272 36.1302 131.716 33.5448 128.961 33.5448C126.206 33.5448 124.25 35.9257 123.907 39.2998H123.922Z" fill="black"></path><path d="M33.7171 8.0271H27.9072V13.972H33.7171V8.0271Z" fill="black"></path><path d="M20.7123 1.3811H14.9023V7.32596H20.7123V1.3811Z" fill="black"></path><path d="M27.2074 1.3811H21.3975V7.32596H27.2074V1.3811Z" fill="black"></path><path d="M33.7171 1.36646H27.9072V7.31131H33.7171V1.36646Z" fill="black"></path><path d="M20.7123 8.0271H14.9023V13.972H20.7123V8.0271Z" fill="black"></path><path d="M27.2074 8.0271H21.3975V13.972H27.2074V8.0271Z" fill="black"></path><path d="M27.2074 14.6731H21.3975V20.618H27.2074V14.6731Z" fill="black"></path><path d="M33.7171 14.6731H27.9072V20.618H33.7171V14.6731Z" fill="black"></path><path d="M27.2074 21.3191H21.3975V27.264H27.2074V21.3191Z" fill="black"></path><path d="M33.7171 21.3191H27.9072V27.264H33.7171V21.3191Z" fill="black"></path><path d="M13.7603 11.4011H9.56348V15.6954H13.7603V11.4011Z" fill="black"></path><path d="M9.5777 13.5337H5.38086V17.828H9.5777V13.5337Z" fill="black"></path><path d="M8.36481 20.7932H4.16797V25.0875H8.36481V20.7932Z" fill="black"></path><path d="M12.7896 23.9919H8.59277V28.2863H12.7896V23.9919Z" fill="black"></path><path d="M15.4449 19.3325H11.248V23.6268H15.4449V19.3325Z" fill="black"></path><path d="M22.3969 18.1641H17.1865V23.4954H22.3969V18.1641Z" fill="black"></path><path d="M14.1895 33.1357H9.4502V37.9851H14.1895V33.1357Z" fill="black"></path><path d="M11.2338 36.7727H8.93555V39.1244H11.2338V36.7727Z" fill="black"></path><path d="M30.7052 33.866H28.207V36.4221H30.7052V33.866Z" fill="black"></path><path d="M23.5816 28.3447H19.3848V32.639H23.5816V28.3447Z" fill="black"></path><path d="M13.5181 3.52832H9.32129V7.82264H13.5181V3.52832Z" fill="black"></path><path d="M23.582 32.7998H20.9697V35.4728H23.582V32.7998Z" fill="black"></path><path d="M19.0851 33.1648H15.916V36.4074H19.0851V33.1648Z" fill="black"></path><path d="M30.4337 40.0007H27.2646V43.2434H30.4337V40.0007Z" fill="black"></path><path d="M17.9295 43.7253H15.3457V46.3691H17.9295V43.7253Z" fill="black"></path><path d="M2.92637 20.1357H0V23.1301H2.92637V20.1357Z" fill="black"></path></svg> 